<svg width="66" height="24" viewBox="0 0 66 24" fill="none" xmlns="http://www.w3.org/2000/svg">
<path d="M0 23.5862L4.16077 0.413793H22.439L21.4191 6.07958H10.8633L10.3291 9.03979H14.2632C17.0154 9.03979 18.969 9.66048 20.1239 10.9019C21.2787 12.1432 21.6457 13.9098 21.2248 16.2016C20.8038 18.5889 19.7677 20.4191 18.1163 21.6923C16.465 22.9549 14.3064 23.5862 11.6404 23.5862H0ZM9.43863 14.0212L8.64533 18.4456H11.2033C11.9373 18.4456 12.5255 18.2599 12.968 17.8886C13.4105 17.5172 13.7019 16.9602 13.8422 16.2175C13.9718 15.4854 13.88 14.939 13.567 14.5782C13.254 14.2069 12.7305 14.0212 11.9966 14.0212H9.43863Z" fill="#FFE01A"/>
<path d="M35.3358 23.5862L30.9645 14.1008L37.2138 9.83554L44.1592 23.5862H35.3358ZM27.6618 9.00796H32.114L39.6746 0.413793H47.8828L34.4615 15.0557H26.5771L27.6618 9.00796ZM20.8459 23.5862L25.0067 0.413793H32.7292L28.5685 23.5862H20.8459Z" fill="white"/>
<path d="M43.5796 12.6844L43.8224 11.3157C44.524 7.40053 46.0566 4.53581 48.4203 2.72149C50.784 0.907162 53.6658 0 57.0657 0C60.1957 0 62.5594 0.732095 64.1568 2.19629C65.765 3.64987 66.3208 5.74536 65.8243 8.48276L65.6139 9.66048H58.0371L58.3285 8.06897C58.5012 7.08223 58.404 6.38196 58.0371 5.96817C57.6701 5.54377 57.0333 5.33156 56.1267 5.33156C55.1553 5.33156 54.3404 5.62865 53.682 6.22281C53.0344 6.80637 52.5649 7.91512 52.2735 9.54907L51.3993 14.4509C51.1078 16.0212 51.1618 17.13 51.5611 17.7772C51.9713 18.4244 52.716 18.748 53.7953 18.748C54.6912 18.748 55.3927 18.4934 55.9 17.9841C56.4181 17.4748 56.7743 16.7003 56.9685 15.6605L57.1952 14.4032H64.772L64.513 15.756C64.0596 18.313 62.7699 20.3289 60.6436 21.8037C58.5281 23.2679 55.9054 24 52.7754 24C49.3216 24 46.7528 23.0769 45.069 21.2308C43.3853 19.3846 42.8888 16.5358 43.5796 12.6844Z" fill="white"/>
</svg>
