<svg width="24" height="24" viewBox="0 0 24 24" fill="none" xmlns="http://www.w3.org/2000/svg">
<g opacity="0.8">
<path d="M4.31992 1.91992C2.99512 1.91992 1.91992 2.99512 1.91992 4.31992V19.6799C1.91992 21.0047 2.99512 22.0799 4.31992 22.0799H19.6799C21.0047 22.0799 22.0799 21.0047 22.0799 19.6799V4.31992C22.0799 2.99512 21.0047 1.91992 19.6799 1.91992H4.31992ZM11.9999 4.31992C14.1215 4.31992 15.8399 6.03832 15.8399 8.15992C15.8399 10.2815 14.1215 11.9999 11.9999 11.9999C9.87832 11.9999 8.15992 10.2815 8.15992 8.15992C8.15992 6.03832 9.87832 4.31992 11.9999 4.31992ZM11.9999 6.23992C11.4907 6.23992 11.0023 6.44221 10.6423 6.80228C10.2822 7.16235 10.0799 7.65071 10.0799 8.15992C10.0799 8.66914 10.2822 9.1575 10.6423 9.51757C11.0023 9.87764 11.4907 10.0799 11.9999 10.0799C12.5091 10.0799 12.9975 9.87764 13.3576 9.51757C13.7176 9.1575 13.9199 8.66914 13.9199 8.15992C13.9199 7.65071 13.7176 7.16235 13.3576 6.80228C12.9975 6.44221 12.5091 6.23992 11.9999 6.23992ZM15.8399 12.7152C16.1423 12.7152 16.4402 12.8589 16.6274 13.1277C16.9298 13.5597 16.8242 14.1603 16.3874 14.4627C15.6674 14.9667 14.8751 15.3311 14.0399 15.5615L16.5168 18.043C16.896 18.4174 16.896 19.0224 16.5168 19.3968C16.3296 19.584 16.0847 19.6799 15.8399 19.6799C15.5951 19.6799 15.3502 19.584 15.163 19.3968L11.9999 16.2384L8.8368 19.3968C8.6496 19.584 8.40472 19.6799 8.15992 19.6799C7.91512 19.6799 7.67025 19.584 7.48305 19.3968C7.10385 19.0224 7.10385 18.4174 7.48305 18.043L9.95992 15.5615C9.12952 15.3311 8.33711 14.9714 7.61711 14.4674C7.18511 14.165 7.07471 13.5692 7.37711 13.1324C7.56431 12.8636 7.8621 12.7199 8.1693 12.7199C8.3565 12.7199 8.5488 12.7772 8.7168 12.8924C9.6816 13.5644 10.8191 13.9199 11.9999 13.9199C13.1855 13.9199 14.3228 13.5645 15.2924 12.8877C15.4556 12.7725 15.6479 12.7152 15.8399 12.7152Z" fill="white"/>
</g>
</svg>
