<svg width="24" height="24" viewBox="0 0 24 24" fill="none" xmlns="http://www.w3.org/2000/svg">
<g opacity="0.8">
<path d="M10.4804 1.06781C5.74525 1.75949 0.976074 5.72125 0.976074 12.0347C0.976074 18.1696 5.93108 23.04 11.9973 23.04C18.8316 23.04 24.8621 16.3977 22.5433 8.74407C22.4434 8.41527 22.0461 8.28528 21.7783 8.50032L19.7242 10.1484C19.585 10.2598 19.5233 10.4382 19.5554 10.6134C19.6375 11.0637 19.6801 11.5286 19.6801 12C19.6801 16.369 16.0369 19.8823 11.6214 19.6706C8.01611 19.4978 4.63967 16.2417 4.34639 12.6441C4.01567 8.58663 6.84318 5.12295 10.6333 4.44375C10.8665 4.40247 11.0401 4.20789 11.0401 3.97125V1.54219C11.0401 1.24507 10.7742 1.02509 10.4804 1.06781ZM14.4086 1.24219C14.1471 1.24075 13.9201 1.44709 13.9201 1.72219V8.6775C13.3547 8.35014 12.7005 8.16 12.0001 8.16C9.8795 8.16 8.16014 9.87936 8.16014 12C8.16014 14.1206 9.8795 15.84 12.0001 15.84C14.1208 15.84 15.8401 14.1206 15.8401 12V5.35219C16.6139 5.80003 17.3047 6.37407 17.8773 7.05375C18.0861 7.30191 18.4747 7.27769 18.6479 7.00313L19.9754 4.90313C20.0935 4.71689 20.0728 4.46903 19.9183 4.31063C19.4027 3.78167 17.618 1.99545 14.522 1.25625C14.4838 1.24719 14.4459 1.2424 14.4086 1.24219Z" fill="white"/>
</g>
</svg>
