<svg width="24" height="24" viewBox="0 0 24 24" fill="none" xmlns="http://www.w3.org/2000/svg">
<g opacity="0.8">
<path d="M22.5093 11.5132C22.5113 11.5132 22.5127 11.5132 22.5146 11.5132C22.6485 11.5132 22.7762 11.457 22.8669 11.3586C22.9591 11.2588 23.0047 11.1249 22.9927 10.9895C22.5108 5.68885 18.3141 1.49077 13.013 1.00789C12.8786 0.997335 12.7433 1.04101 12.6434 1.13365C12.5436 1.22581 12.4879 1.35589 12.4893 1.49173C12.5729 8.53621 13.5021 11.4148 22.5093 11.5132ZM22.5093 12.4866C13.5021 12.585 12.5733 15.4636 12.4898 22.5081C12.4884 22.6439 12.5441 22.774 12.6439 22.8661C12.7332 22.9482 12.8498 22.9938 12.9698 22.9938C12.9842 22.9938 12.9991 22.9933 13.0135 22.9919C18.3146 22.509 22.5113 18.3114 22.9927 13.0103C23.0047 12.8749 22.9596 12.741 22.8669 12.6412C22.7743 12.5413 22.6452 12.4919 22.5093 12.4866ZM10.9553 1.01029C5.67095 1.50709 1.48775 5.70421 1.00823 10.9905C0.996227 11.1258 1.04135 11.2597 1.13399 11.3596C1.22471 11.458 1.35287 11.5137 1.48631 11.5137C1.48823 11.5137 1.49015 11.5137 1.49207 11.5137C10.4695 11.4105 11.3964 8.53333 11.4809 1.49365C11.4823 1.35781 11.4261 1.22725 11.3263 1.13509C11.2255 1.04293 11.0906 0.997815 10.9553 1.01029ZM1.49159 12.4861C1.34231 12.4693 1.22519 12.5404 1.13351 12.6402C1.04135 12.7401 0.995747 12.874 1.00775 13.0093C1.48727 18.2956 5.67095 22.4927 10.9553 22.9895C10.9701 22.9909 10.9855 22.9914 11.0004 22.9914C11.1204 22.9914 11.2365 22.9463 11.3258 22.8642C11.4257 22.7721 11.4818 22.6415 11.4804 22.5057C11.3959 15.4665 10.4695 12.5893 1.49159 12.4861Z" fill="white"/>
</g>
</svg>
